<svg viewBox="0 0 200 220" xmlns="http://www.w3.org/2000/svg">

  <!-- Outer hexagon ring -->
  <polygon points="100,4 173,43 173,121 100,160 27,121 27,43"
    fill="none" stroke="#C9A84C" stroke-width="1.2" opacity="0.5"/>

  <!-- Inner hexagon subtle fill -->
  <polygon points="100,16 161,50 161,114 100,148 39,114 39,50"
    fill="#C9A84C" opacity="0.05"/>

  <!-- BEE BODY -->
  <ellipse cx="100" cy="100" rx="22" ry="30" fill="#C9A84C"/>

  <!-- Stripes -->
  <rect x="78" y="90" width="44" height="7" fill="#0D0D0D" opacity="0.55" rx="1"/>
  <rect x="78" y="104" width="44" height="7" fill="#0D0D0D" opacity="0.55" rx="1"/>

  <!-- HEAD -->
  <circle cx="100" cy="68" r="14" fill="#C9A84C"/>

  <!-- ANTENNAE -->
  <line x1="93" y1="56" x2="80" y2="38" stroke="#C9A84C" stroke-width="1.5" stroke-linecap="round"/>
  <line x1="107" y1="56" x2="120" y2="38" stroke="#C9A84C" stroke-width="1.5" stroke-linecap="round"/>
  <circle cx="79" cy="37" r="2.8" fill="#E8C96A"/>
  <circle cx="121" cy="37" r="2.8" fill="#E8C96A"/>

  <!-- WINGS LEFT -->
  <path d="M78,84 Q44,54 34,70 Q40,90 78,94 Z" fill="#E8C96A" opacity="0.55"/>
  <path d="M78,92 Q32,88 30,108 Q42,120 78,108 Z" fill="#C9A84C" opacity="0.4"/>

  <!-- WINGS RIGHT -->
  <path d="M122,84 Q156,54 166,70 Q160,90 122,94 Z" fill="#E8C96A" opacity="0.55"/>
  <path d="M122,92 Q168,88 170,108 Q158,120 122,108 Z" fill="#C9A84C" opacity="0.4"/>

  <!-- STINGER -->
  <polygon points="100,130 93,146 107,146" fill="#8C7235"/>

  <!-- CROWN -->
  <polygon points="100,46 92,36 86,46" fill="#E8C96A"/>
  <polygon points="100,46 100,35 97,46" fill="#C9A84C"/>
  <polygon points="100,46 108,36 114,46" fill="#E8C96A"/>
  <rect x="85" y="45" width="30" height="5" rx="1" fill="#C9A84C"/>

  <!-- LABEL -->
  <text x="100" y="178" text-anchor="middle"
    fill="#C9A84C" font-size="11" letter-spacing="5"
    font-family="Georgia, serif" font-weight="bold">BEYPEDIA</text>

  <line x1="58" y1="185" x2="142" y2="185" stroke="#C9A84C" stroke-width="0.5" opacity="0.4"/>

  <text x="100" y="196" text-anchor="middle"
    fill="#8C7235" font-size="7" letter-spacing="3.5"
    font-family="Georgia, serif">ACERVO DIGITAL</text>

</svg>
